PathFileType	4	(X/Y/Z)	Patient4_TMGait_0pt5_01_right_25.trc.trc
DataRate	CameraRate	NumFrames	NumMarkers	Units	OrigDataRate	OrigDataStartFrame	OrigNumFrames
73.298429319372	73.298429319372	4	33	mm	73.298429319372	18	       141
Frame#	Time	L.ASIS			Sacral			L.Shoulder			Chest			R.Shoulder			Neck			R.ASIS			R.Thigh.Superior			R.Thigh.Lateral			R.Thigh.Inferior			R.Patella			L.Thigh.Superior			L.Thigh.Lateral			L.Thigh.Inferior			L.Patella			L.Shank.Superior			L.Shank.Lateral			L.Shank.Inferior			R.Shank.Superior			R.Shank.Lateral			R.Shank.Inferior			R.Heel			R.Midfoot.Superior			R.Midfoot.Lateral			R.Toe			L.Heel			L.Midfoot.Lateral			L.Midfoot.Superior			L.Toe			L.Elbow			L.Wrist			R.Elbow			R.Wrist			
		X1	Y1	Z1	X2	Y2	Z2	X3	Y3	Z3	X4	Y4	Z4	X5	Y5	Z5	X6	Y6	Z6	X7	Y7	Z7	X8	Y8	Z8	X9	Y9	Z9	X10	Y10	Z10	X11	Y11	Z11	X12	Y12	Z12	X13	Y13	Z13	X14	Y14	Z14	X15	Y15	Z15	X16	Y16	Z16	X17	Y17	Z17	X18	Y18	Z18	X19	Y19	Z19	X20	Y20	Z20	X21	Y21	Z21	X22	Y22	Z22	X23	Y23	Z23	X24	Y24	Z24	X25	Y25	Z25	X26	Y26	Z26	X27	Y27	Z27	X28	Y28	Z28	X29	Y29	Z29	X30	Y30	Z30	X31	Y31	Z31	X32	Y32	Z32	X33	Y33	Z33	

18	33.001928571429	930.674617253415	952.795961054626	313.229241944368	705.739534863183	1009.724965009898	450.302710937759	922.847626425773	1433.900372240089	292.442328749140	999.860833732572	1354.068548014208	463.094804283408	898.196968897811	1431.330713308390	626.701796839785	907.856292678341	1491.955135383453	443.331085201501	919.634872230755	940.736006588935	588.838175919602	993.202393281494	771.216572366422	565.592408619021	947.117372799298	651.504682924347	638.536354892957	1037.191707012185	611.508403165714	561.432065032620	1070.887543285827	529.585865605766	580.570727281406	937.904859460388	728.664821221230	348.825483018186	832.657122525153	631.864583321111	277.430105679765	888.238557998542	540.680652314107	349.960305608392	872.248287171723	472.422847035881	359.852150272819	839.397558500170	405.305820554220	348.141414430224	739.872442961338	303.861330510059	291.305675969844	767.203315800315	187.894828533348	365.588101616673	1054.477301877502	440.358668144582	590.313756032547	999.418008309648	327.337734094415	653.347405263204	1068.094228979490	240.436964211325	603.662971731524	973.397380613262	52.149852650519	573.210586101941	1131.738004427575	129.543028605319	619.862064600757	1054.509717160042	51.308663702688	650.048135911641	1256.444571626499	96.285457633556	653.592857870329	620.147196303416	40.184803705009	397.469291446647	696.848574482656	36.442792618683	320.272767722237	780.307446014733	95.807924209020	350.396958985440	908.514732076364	39.849349869021	325.136587247727	933.142216671643	1100.157759290445	134.648307687495	1177.156999088018	1022.503538262488	149.821675589507	739.168522187371	1122.179989530212	721.595312747269	695.955854772600	866.599356614624	741.061185499820	
19	33.015571428571	931.775538523308	951.445888062421	315.713074069051	706.995236528343	1008.064244848051	452.590933835857	922.481219286513	1432.681587398856	294.751030858463	999.658907869252	1353.269177989757	465.508008442903	897.648290838760	1430.351393404131	628.966598514795	907.195035089741	1490.795201497576	445.555416281404	920.663409934432	939.208250285984	591.305277368317	992.466549878875	767.578518340821	568.766654679049	943.886765141585	648.074569641770	640.569970785019	1034.035256315446	607.727854268883	563.820916181488	1066.562106059180	526.929955982091	581.768024981487	937.278691551559	726.813756154783	350.693570269046	830.896378996595	631.136436133432	279.023446896555	885.282148531029	539.272433903811	351.357727854752	868.542110511144	471.158086725764	361.132009007412	835.222193361636	404.375519572264	349.183228546103	734.919517055381	303.835555945998	292.014382933454	761.127421737175	187.454366498403	365.969293579427	1052.238975886960	437.766749618851	591.570022562680	999.312922205577	323.404514095817	653.958995185676	1070.214001835803	238.082716949437	604.231401366203	979.571507752836	48.355368275626	572.957883968241	1136.590960360793	128.143364855749	620.128461184280	1060.641786099229	48.380879248311	649.636699406642	1261.838509851833	96.667715669765	653.482764652363	613.242243805402	40.176179946686	397.400053805305	690.022119132425	36.425966732267	320.283292682510	773.478762259662	95.756286714420	350.464248759173	901.697569665912	39.800647912284	325.109685421830	936.580301390588	1098.919872380842	137.598835105765	1181.846571827259	1026.315237825287	155.058468332607	736.645591176622	1122.516474968489	723.249070191245	692.342209712587	867.056922761886	742.966097362117	
20	33.029214285714	933.149137266916	950.064218386952	318.356530181142	708.446750919034	1006.274488615687	455.099145169037	921.986777412884	1431.411885239804	297.262604629490	999.468828826412	1352.477165695561	468.087291813663	897.119305122555	1429.245680456361	631.474225836667	906.430527353121	1489.572543114966	448.007216379428	921.940712518576	937.575861438827	593.940201748994	992.356321281910	764.106685003654	571.985843595590	941.289693329296	644.698881352918	642.402298358622	1031.636634274558	604.204004901238	566.127072505171	1062.762311854530	524.012632739971	582.893937778947	936.951323481857	724.929508489773	352.661327464413	829.398380464015	630.368312360943	280.788072834842	882.693558937864	537.820095840570	352.850575101041	865.259820481569	469.755594427652	362.491923563192	831.337109147843	403.357784485609	350.304074187147	730.147700619163	303.838569168173	292.754212956592	755.134055681512	186.990023255615	366.327342942479	1049.874224405433	434.796556275169	592.637770245862	998.066592857108	319.623453779344	654.216153041231	1070.348425047748	235.382188138828	604.426410322173	981.988301315483	45.566744376058	572.266592821917	1138.408612895232	125.982372740847	619.901558924709	1062.925070444559	45.762567522377	648.871151425887	1263.708173172296	94.994716141913	652.949363446922	606.315712083578	40.192463977434	397.257315148280	683.207560819997	36.376128596402	320.244057588143	766.684832450066	95.682005183119	350.477361614779	894.928767850310	39.738414395264	325.058689086618	939.478094034525	1097.520395190983	140.874222038995	1185.724478404716	1029.262169918600	160.508849090668	735.288145082393	1122.030880543707	725.107759463901	690.670890524721	866.492810252970	744.978671515036	
21	33.042857142857	934.784921485628	948.708785013392	321.157055268303	710.050163195108	1004.405341003122	457.800717047727	921.418797695263	1430.109911412682	299.987986118072	999.313182352096	1351.701926348841	470.856284519266	896.617926076555	1428.038292526232	634.234893755670	905.611308599517	1488.314904799846	450.698740815617	923.432558876395	935.878279881061	596.737774046442	992.887303987148	760.886039077719	575.197130242873	939.381325010651	641.475794250445	644.021454871368	1030.051452484401	601.028803520432	568.330561454099	1059.594483835201	520.950508535323	583.942864729738	936.951765675111	723.067680340527	354.733040210338	828.240679702747	629.559616814123	282.731817580920	880.602882817066	536.335663062806	354.453934561816	862.562768665681	468.190533339398	363.928079686394	827.855942780972	402.238279707881	351.512481146034	725.638615482040	303.896966404101	293.529441076609	749.279848535827	186.520041643025	366.657332004388	1047.557311904661	431.566613999003	593.531080798515	995.981243097251	316.017889574494	654.217199833217	1068.865440981070	232.371580948134	604.308627864209	981.101696203353	43.620789721312	571.304888742825	1137.665358902242	123.116368419880	619.217897490292	1061.890590069843	43.412238472067	647.888818901680	1262.643031549138	91.455624549369	651.985202275622	599.379124383003	40.314011228106	397.027369538201	676.410544418664	36.326817305154	320.144988439170	759.957266972703	95.590067331887	350.423175073103	888.211856549692	39.651374018130	324.983917582780	941.792694452570	1095.964249402819	144.457134984684	1188.781027210815	1031.294026289554	166.129632414152	735.080138065723	1120.739578058930	727.209582135339	690.961866573763	864.939772433021	747.103050366929	
